# xmcd
# 
# Track frame offsets:
#     150
#     24684
#     43862
#     73903
#     103133
#     135019
#     160342
#     192250
#     219816
#     237998
# 
# Disc length: 3325
# 
# Revision: 2
# Processed by: cddbd v1.5.1PL0 Copyright (c) Steve Scherf et al.
# Submitted via: BonkEnc v1.0beta3
# 
DISCID=890cfb0a
DTITLE=Baptiste Trotignon - David El-Malek - No title
DYEAR=2005
DGENRE=Jazz
TTITLE0=Nir-Hein 22/09/1978
TTITLE1=Children Song
TTITLE2=Soukha
TTITLE3=Bass on Top
TTITLE4=Bribs
TTITLE5=In a Dream
TTITLE6=Monsieur Degand
TTITLE7=334
TTITLE8=Le Chemin du Serpent
TTITLE9=Snow
EXTD=YEAR: 2005
EXTT0=
EXTT1=
EXTT2=
EXTT3=
EXTT4=
EXTT5=
EXTT6=
EXTT7=
EXTT8=
EXTT9=
PLAYORDER=
